<?xml version="1.0" encoding="UTF-8"?>
<svg version="1.1" viewBox="0 0 109 84" xmlns="http://www.w3.org/2000/svg" xmlns:xlink="http://www.w3.org/1999/xlink">
  <title>Icon 03</title>
  <desc>Created with Sketch.</desc>
  <defs>
    <polygon id="b" points="0 84 108.95 84 108.95 0.491 0 0.491"/>
  </defs>
  <g fill="none" fill-rule="evenodd">
    <g transform="translate(-404 -35)">
      <g transform="translate(404 34)">
        <polygon points="26.996 7.009 30.011 7.009 30.011 5.009 26.996 5.009" fill="#fff"/>
        <polygon points="27.034 78.009 31.034 78.009 31.034 74.009 27.034 74.009" fill="#fff"/>
        <path d="m56.008 1.0862v1.997 1.131 4.795h-54.011v-5.926h0.033v-1.997h-2.03v81.867h0.97v0.056h56.067v-0.056h0.969v-81.867h-1.998zm-54.011 67.923h54.011v-58h-54.011v58zm0 11.947v-4.148-5.799h54.011v5.799 4.148 0.053h-54.011v-0.053z" fill="#fff"/>
        <polygon points="0.439 3.001 56.602 3.001 56.602 1 0.439 1" fill="#fff"/>
        <g transform="translate(0 .509)">
          <path d="m26.681 58.767l5.691-10.356 10.483 4.797c0.454 0.208 0.995 0.043 1.256-0.38l0.024-0.037 3.214-4.735 0.591 0.058c0.102 9e-3 0.206 0.015 0.309 0.015 1.748-1e-3 3.165-1.418 3.165-3.166 0-1.749-1.417-3.167-3.165-3.167-1.749 0-3.167 1.418-3.167 3.167 0 0.506 0.119 1.001 0.352 1.451l0.274 0.528-2.79 4.111-10.573-4.838-0.038-0.019c-0.49-0.246-1.086-0.036-1.327 0.453l-0.021 0.04-6.073 11.04-11.318-5.25-0.05-0.032c-0.455-0.279-1.054-0.146-1.349 0.294l-2.375 4.414-0.595 0.013c-1.718 0.041-3.089 1.447-3.089 3.165 0 1.749 1.418 3.167 3.166 3.167 1.749 0 3.166-1.418 3.166-3.167 0-0.646-0.194-1.27-0.563-1.802l-0.336-0.484 1.706-3.444 11.614 5.407 0.021 0.01c0.485 0.254 1.084 0.065 1.332-0.409l0.434-0.856 0.031 0.012z" fill="#E15736"/>
          <path d="m51 15.5h-19.996v7.166c1.604 0.662 2.809 2.093 3.156 3.834h16.84v-11z" stroke="#E15736" stroke-width="2"/>
          <path d="m6.9999 15.5h19.996v7.166c-1.604 0.662-2.809 2.093-3.156 3.834h-16.84v-11z" stroke="#fff" stroke-width="2"/>
          <path d="m29 25.042c-1.375 0-2.489 1.114-2.489 2.489h4.978c0-1.375-1.114-2.489-2.489-2.489" fill="#E15736"/>
          <mask id="a" fill="white">
            <use xlink:href="#b"/>
          </mask>
          <polygon points="6 35.5 52 35.5 52 34.5 6 34.5" fill="#fff" mask="url(#a)"/>
          <polygon points="16.954 38.5 40.954 38.5 40.954 37.5 16.954 37.5" fill="#fff" mask="url(#a)"/>
          <polygon points="6 32.515 52 32.515 52 31.515 6 31.515" fill="#fff" mask="url(#a)"/>
          <path d="m64.066 58.924c0.629 0.834 1.583 1.433 2.663 1.853 1.602 0.623 3.476 0.853 5.043 0.873h8e-3l0.068 1e-3h0.042 0.035 0.075 0.111l0.11-1e-3c2.273-0.022 4.307-0.381 5.773-0.952 0.364-0.141 0.687-0.289 0.961-0.441 0.727-0.492 0.953-0.976 1.022-1.189-0.081-0.487-0.824-1.003-1.983-1.454-1.514-0.589-3.632-0.953-5.994-0.953s-4.48 0.364-5.993 0.953c-1.046 0.407-1.753 0.867-1.941 1.31zm-0.05 4.29v0.012c0.012 0.508 0.77 1.055 1.991 1.53 1.513 0.588 3.631 0.953 5.993 0.953s4.48-0.365 5.994-0.954c1.23-0.478 1.991-1.03 1.991-1.541v-1.266c-0.379 0.223-0.805 0.427-1.272 0.609l-0.154 0.058c-1.427 0.581-3.45 1.012-6.316 1.035l-0.05 1e-3h-0.071-0.122-0.084-0.037-0.049c-2.532-0.018-4.842-0.433-6.542-1.094-0.467-0.182-0.893-0.386-1.272-0.609v1.266zm-2-4.058v-0.027c0.016-1.407 1.263-2.593 3.272-3.374 1.738-0.676 4.113-1.094 6.712-1.094 2.6 0 4.975 0.418 6.713 1.094 2.021 0.786 3.272 1.982 3.272 3.401l-2e-3 0.081h2e-3v20.267c0 1.419-1.251 2.615-3.272 3.401-1.738 0.676-4.113 1.095-6.713 1.095-2.599 0-4.974-0.419-6.712-1.095-2.022-0.786-3.272-1.982-3.272-3.401v-20.348zm2 8.099c0 0.511 0.761 1.064 1.991 1.542 1.513 0.589 3.631 0.953 5.993 0.953s4.48-0.364 5.994-0.953c1.23-0.478 1.991-1.03 1.991-1.542v-1.249c-0.379 0.223-0.805 0.427-1.272 0.608-1.738 0.677-4.113 1.095-6.713 1.095-2.599 0-4.974-0.418-6.712-1.094-0.467-0.182-0.893-0.386-1.272-0.609v1.249zm0 4.042c0 0.511 0.761 1.063 1.991 1.542 1.513 0.588 3.631 0.953 5.993 0.953s4.48-0.365 5.994-0.954c1.23-0.478 1.991-1.03 1.991-1.541v-1.25c-0.379 0.224-0.805 0.427-1.272 0.609-1.738 0.676-4.113 1.094-6.713 1.094-2.599 0-4.974-0.418-6.712-1.094-0.467-0.182-0.893-0.386-1.272-0.609v1.25zm0 4.041c0 0.511 0.761 1.064 1.991 1.542 1.513 0.589 3.631 0.953 5.993 0.953s4.48-0.364 5.994-0.953c1.23-0.478 1.991-1.03 1.991-1.542v-1.249c-0.379 0.223-0.805 0.427-1.272 0.608-1.738 0.677-4.113 1.095-6.713 1.095-2.599 0-4.974-0.418-6.712-1.094-0.467-0.182-0.893-0.386-1.272-0.609v1.249zm15.969 2.792c-0.379 0.224-0.805 0.427-1.272 0.609-1.738 0.676-4.113 1.094-6.713 1.094-2.599 0-4.974-0.418-6.712-1.094-0.467-0.182-0.893-0.386-1.272-0.609v1.374c0 0.512 0.761 1.064 1.991 1.542 1.513 0.589 3.631 0.954 5.993 0.954 2.363 0 4.481-0.365 5.994-0.954 1.23-0.478 1.991-1.03 1.991-1.542v-1.374z" fill="#E15736" mask="url(#a)"/>
          <path d="m64.037 49.652h37.917v-16h-37.917v16zm-1-18h39.917 1v1 18 1h-1-39.917-1v-1-18-1h1z" fill="#fff" mask="url(#a)"/>
          <path d="m82.996 37.944c-2.048 0-3.708 1.66-3.708 3.708s1.66 3.708 3.708 3.708 3.708-1.66 3.708-3.708-1.66-3.708-3.708-3.708" fill="#fff" mask="url(#a)"/>
          <path d="m63.961 35.652h2v-2h-2v2zm35.993 0h2v-2h-2v2z" fill="#fff" mask="url(#a)"/>
          <path d="m66.975 41.652h9.002v-1h-9.002v1zm23.04 0h9.002v-1h-9.002v1z" fill="#fff" mask="url(#a)"/>
          <path d="m63.961 49.652h2v-2h-2v2zm35.993 0h2v-2h-2v2z" fill="#fff" mask="url(#a)"/>
          <path d="m106.95 18.661h-37.917v12.991h33.917 1v1 2.009h3v-16zm-38.917-2h39.917 1v1 18 1h-1-5-1v-1-2.009h-33.917-1v-1-14.991l1e-3 -1h0.999z" fill="#fff" mask="url(#a)"/>
          <path d="m87.996 22.953c-2.048 0-3.708 1.66-3.708 3.708s1.66 3.708 3.708 3.708 3.708-1.66 3.708-3.708-1.66-3.708-3.708-3.708" fill="#fff" mask="url(#a)"/>
          <path d="m68.961 20.661h2v-2h-2v2zm35.993 0h2v-2h-2v2z" fill="#fff" mask="url(#a)"/>
          <path d="m71.975 26.661h9.002v-1h-9.002v1zm23.04 0h9.002v-1h-9.002v1z" fill="#fff" mask="url(#a)"/>
          <polygon points="104.95 34.661 106.95 34.661 106.95 32.661 104.95 32.661" fill="#fff" mask="url(#a)"/>
          <path d="m82.035 63.268c0.63 0.834 1.583 1.433 2.663 1.853 1.603 0.623 3.476 0.853 5.043 0.873h8e-3l0.068 1e-3h0.042 0.035 0.075 0.111l0.11-1e-3c2.273-0.022 4.307-0.381 5.773-0.952 0.364-0.141 0.687-0.29 0.961-0.441 0.727-0.492 0.953-0.975 1.022-1.189-0.081-0.487-0.824-1.003-1.983-1.454-1.514-0.589-3.632-0.953-5.994-0.953s-4.48 0.364-5.993 0.953c-1.046 0.407-1.753 0.867-1.941 1.31zm-2.05 0.232v-0.027c0.016-1.407 1.263-2.593 3.272-3.374 1.738-0.676 4.113-1.094 6.712-1.094 2.6 0 4.975 0.418 6.713 1.094 2.021 0.786 3.272 1.982 3.272 3.401l-2e-3 0.081h2e-3v15.924c0 1.418-1.251 2.615-3.272 3.401-1.738 0.676-4.113 1.094-6.713 1.094-2.599 0-4.974-0.418-6.712-1.094-2.022-0.787-3.272-1.983-3.272-3.401v-16.005zm2 3.755c0 0.512 0.761 1.064 1.991 1.542 1.513 0.589 3.631 0.953 5.993 0.953s4.48-0.364 5.994-0.953c1.23-0.478 1.991-1.03 1.991-1.542v-1.249c-0.379 0.223-0.805 0.427-1.272 0.609-1.738 0.676-4.113 1.094-6.713 1.094-2.599 0-4.974-0.418-6.712-1.094-0.467-0.182-0.893-0.386-1.272-0.609v1.249zm0 4.042c0 0.511 0.761 1.063 1.991 1.542 1.513 0.588 3.631 0.953 5.993 0.953s4.48-0.364 5.994-0.953c1.23-0.479 1.991-1.03 1.991-1.542v-1.25c-0.379 0.224-0.805 0.427-1.272 0.609-1.738 0.676-4.113 1.094-6.713 1.094-2.599 0-4.974-0.418-6.712-1.094-0.467-0.181-0.893-0.386-1.272-0.609v1.25zm0 4.041c0 0.512 0.761 1.064 1.991 1.542 1.513 0.589 3.631 0.953 5.993 0.953s4.48-0.364 5.994-0.953c1.23-0.478 1.991-1.03 1.991-1.542v-1.249c-0.379 0.223-0.805 0.427-1.272 0.609-1.738 0.676-4.113 1.094-6.713 1.094-2.599 0-4.974-0.418-6.712-1.094-0.467-0.182-0.893-0.386-1.272-0.609v1.249zm15.969 2.792c-0.379 0.224-0.805 0.427-1.272 0.609-1.738 0.676-4.113 1.094-6.713 1.094-2.599 0-4.974-0.418-6.712-1.094-0.467-0.181-0.893-0.386-1.272-0.609v1.375c0 0.511 0.761 1.063 1.991 1.542 1.513 0.588 3.631 0.953 5.993 0.953 2.363 0 4.48-0.365 5.994-0.953 1.23-0.479 1.991-1.031 1.991-1.542v-1.375z" fill="#E15736" mask="url(#a)"/>
        </g>
      </g>
    </g>
  </g>
</svg>
