<?xml version="1.0" encoding="utf-8"?>
<svg enable-background="new 0 0 60 60" viewBox="0 0 60 60" xmlns="http://www.w3.org/2000/svg" xmlns:xlink="http://www.w3.org/1999/xlink">
  <style type="text/css">.st0{clip-path:url(#g);} .st1{clip-path:url(#f);fill:#FFFFFF;} .st2{clip-path:url(#c);} .st3{clip-path:url(#b);fill:#ED1C24;} .st4{clip-path:url(#k);} .st5{clip-path:url(#j);fill:#FFFFFF;}</style>
  <defs>
    <path id="i" d="M6 9h48v41H6z"/>
  </defs>
  <defs>
    <path id="h" d="M9 12v26h42V12H38v1H22v-1H9zm13-3h16v1h15v30H33.8l5.1 8H54v2H6v-2h15.3l5.1-8H7V10h15V9zm6.8 31l-.3.4-4.8 7.6h12.9l-5.1-8h-2.7z"/>
  </defs>
  <clipPath id="g">
    <use overflow="visible" xlink:href="#i"/>
  </clipPath>
  <clipPath id="f" class="st0">
    <use overflow="visible" xlink:href="#h"/>
  </clipPath>
  <path class="st1" d="M1 4h58v51H1z"/>
  <defs>
    <path id="e" d="M6 9h48v41H6z"/>
  </defs>
  <defs>
    <path id="d" d="M33 33h11v-2H33v2zm13-14h2v-2h-2v2zm0 14h2v-2h-2v2zm0-7h2v-2h-2v2zm-16-7h14v-2H30v2zm-4 7h18v-2H26v2z"/>
  </defs>
  <clipPath id="c">
    <use overflow="visible" xlink:href="#e"/>
  </clipPath>
  <clipPath id="b" class="st2">
    <use overflow="visible" xlink:href="#d"/>
  </clipPath>
  <path class="st3" d="M21 12h32v26H21z"/>
  <defs>
    <path id="a" d="M6 9h48v41H6z"/>
  </defs>
  <defs>
    <path id="l" d="M12 33h2v-2h-2v2zm4-14h14v-2H16v2zm0 7h10v-2H16v2zm0 7h17v-2H16v2zm-4-14h2v-2h-2v2zm0 7h2v-2h-2v2z"/>
  </defs>
  <clipPath id="k">
    <use overflow="visible" xlink:href="#a"/>
  </clipPath>
  <clipPath id="j" class="st4">
    <use overflow="visible" xlink:href="#l"/>
  </clipPath>
  <path class="st5" d="M7 12h31v26H7z"/>
</svg>
