<svg id="图层_1" data-name="图层 1" xmlns="http://www.w3.org/2000/svg" viewBox="0 0 145.77 87"><defs><style>.cls-1,.cls-2,.cls-3,.cls-6,.cls-7,.cls-8,.cls-9{fill:none;}.cls-1,.cls-3,.cls-6{stroke:#fff;}.cls-1,.cls-2,.cls-3,.cls-6,.cls-7,.cls-9{stroke-miterlimit:10;}.cls-1,.cls-3,.cls-7,.cls-8,.cls-9{stroke-width:2px;}.cls-2,.cls-7,.cls-8,.cls-9{stroke:#dd4425;}.cls-2{stroke-width:4px;}.cls-3,.cls-9{stroke-linecap:round;}.cls-4{fill:#dd4425;}.cls-5{fill:#fff;}.cls-6{stroke-width:3px;}.cls-8{stroke-linejoin:round;}</style></defs><title>ship</title><circle class="cls-1" cx="24.9" cy="60.39" r="15.39"/><circle class="cls-2" cx="24.9" cy="60.39" r="16.36"/><line class="cls-3" x1="24.9" y1="41.32" x2="24.9" y2="79.47"/><line class="cls-3" x1="11.41" y1="46.9" x2="38.39" y2="73.88"/><line class="cls-3" x1="5.82" y1="60.39" x2="43.97" y2="60.39"/><line class="cls-3" x1="11.41" y1="73.88" x2="38.39" y2="46.9"/><circle class="cls-4" cx="24.9" cy="60.39" r="2.95"/><circle class="cls-5" cx="24.9" cy="60.39" r="2.17"/><circle class="cls-4" cx="24.9" cy="60.39" r="1.27"/><path class="cls-3" d="M112.83,74s-9.58,6.06-18.1,6.06c-3.79,0-8.53-6.06-15.88-6.06-6.56,0-13.78,6.06-17.56,6.06C54.53,80.06,44.51,74,44.51,74"/><polyline class="cls-1" points="55.91 79.47 42.22 39.98 78.67 28.58 115.12 39.98 101.42 79.47"/><line class="cls-6" x1="78.67" y1="29.06" x2="78.67" y2="73.99"/><polyline class="cls-7" points="69.04 18.02 69.04 9.95 88.24 9.95 88.24 18.02"/><polyline class="cls-1" points="59.1 34.88 59.1 17.16 98.18 17.16 98.18 34.87"/><polygon class="cls-8" points="99.62 58.38 90.32 53.43 90.32 44.7 99.62 49.66 99.62 58.38"/><line class="cls-9" x1="56.49" y1="51.52" x2="69.04" y2="46.41"/><line class="cls-9" x1="59.1" y1="58.39" x2="69.04" y2="54.02"/><circle class="cls-5" cx="94.63" cy="66.82" r="2.84"/><rect class="cls-1" x="84.28" y="21.42" width="8.05" height="4.6"/><line class="cls-3" x1="26.09" y1="27.54" x2="39.31" y2="27.54"/><line class="cls-3" x1="19.27" y1="32.73" x2="27.1" y2="32.73"/><line class="cls-3" x1="30.51" y1="32.73" x2="49.04" y2="32.73"/><line class="cls-3" x1="21.91" y1="37.38" x2="27.54" y2="37.38"/><line class="cls-3" x1="30.23" y1="37.38" x2="37.02" y2="37.38"/><line class="cls-3" x1="110.66" y1="27.54" x2="126.54" y2="27.54"/><line class="cls-3" x1="105.87" y1="32.73" x2="115.12" y2="32.73"/><line class="cls-3" x1="118.6" y1="32.73" x2="137.41" y2="32.73"/><line class="cls-3" x1="112.02" y1="37.38" x2="118.6" y2="37.38"/><line class="cls-3" x1="122.21" y1="37.38" x2="131.19" y2="37.38"/><line class="cls-3" x1="133.96" y1="37.38" x2="139.59" y2="37.38"/></svg>