<?xml version="1.0" encoding="UTF-8"?>
<svg version="1.1" viewBox="0 0 132 83" xmlns="http://www.w3.org/2000/svg" xmlns:xlink="http://www.w3.org/1999/xlink">
  <title>Icon 02</title>
  <desc>Created with Sketch.</desc>
  <defs>
    <polygon id="c" points="126.5 41.515 126.5 0.03 0.078 0.03 0.078 83 126.5 83"/>
    <polygon id="b" points="0 83.97 131.5 83.97 131.5 1 0 1"/>
  </defs>
  <g fill="none" fill-rule="evenodd">
    <g transform="translate(-213 -41)">
      <g transform="translate(213 40)">
        <g transform="translate(5 .97)">
          <mask id="d" fill="white">
            <use xlink:href="#c"/>
          </mask>
          <path d="m68.238 66.033h18.532l5.105 14.966h-1.432-25.878-1.432l5.105-14.966zm-46.107-10.185l4.466-2.578 0.992 1.726-4.459 2.575c0.082 0.31 0.125 0.634 0.125 0.969 0 1.045-0.425 1.993-1.111 2.68l-5e-3 4e-3c-0.686 0.686-1.634 1.111-2.679 1.111s-1.993-0.425-2.68-1.111l-4e-3 -4e-3c-0.686-0.687-1.111-1.635-1.111-2.68 0-1.04 0.421-1.984 1.102-2.669l-3.864-6.692 1.726-1 3.864 6.691c0.308-0.081 0.633-0.125 0.967-0.125 1.041 0 1.985 0.422 2.671 1.103zm-2.671 0.897c-0.497 0-0.947 0.2-1.272 0.524-0.323 0.324-0.523 0.774-0.523 1.271s0.2 0.947 0.523 1.272c0.325 0.323 0.775 0.523 1.272 0.523s0.947-0.2 1.272-0.523c0.323-0.325 0.523-0.775 0.523-1.272s-0.2-0.947-0.523-1.271c-0.325-0.324-0.775-0.524-1.272-0.524zm11.044-14.134v-40.581h93.999v49h-87.17c-0.981-2.332-2.406-4.432-4.168-6.195-0.818-0.818-1.708-1.562-2.661-2.224zm6.864 23.356h28.74l-5.25 15.032h-5.332v2.001h4.581 34.794 4.58v-2.001h-5.332l-5.25-15.032h37.605v-65.937h-98v41.363c-2.7-1.427-5.778-2.235-9.044-2.235-5.352 0-10.198 2.17-13.705 5.677-3.507 3.508-5.677 8.353-5.677 13.705s2.17 10.198 5.677 13.705 8.353 5.677 13.705 5.677 10.198-2.17 13.705-5.677c1.783-1.783 3.22-3.912 4.203-6.278zm0.679-12.937h86.456l0.128 10.995h-86.576c0.512-1.739 0.787-3.58 0.787-5.485 0-1.914-0.278-3.763-0.795-5.51zm-19.587-12.151c-2.497 0.139-4.855 0.796-6.97 1.865l0.919 1.593-1.726 0.993-0.917-1.589c-1.016 0.667-1.959 1.435-2.815 2.291-0.855 0.855-1.623 1.797-2.289 2.813l1.591 0.919-1 1.726-1.59-0.918c-1.069 2.114-1.725 4.472-1.864 6.968h2.912v2h-2.912c0.139 2.497 0.796 4.855 1.865 6.97l1.593-0.919 0.992 1.726-1.588 0.917c0.667 1.016 1.435 1.959 2.29 2.815 0.856 0.855 1.798 1.623 2.814 2.289l0.918-1.591 1.727 1-0.919 1.59c2.115 1.069 4.473 1.725 6.969 1.864v-2.912h2v2.912c2.497-0.139 4.855-0.796 6.97-1.865l-0.919-1.593 1.726-0.992 0.917 1.588c1.016-0.666 1.959-1.435 2.814-2.29 0.856-0.856 1.624-1.798 2.29-2.813l-1.591-0.919 1-1.727 1.59 0.919c1.069-2.114 1.725-4.473 1.864-6.969h-2.912v-2h2.912c-0.139-2.497-0.796-4.855-1.865-6.97l-1.593 0.92-0.993-1.727 1.589-0.916c-0.667-1.016-1.435-1.96-2.291-2.815-0.855-0.855-1.798-1.623-2.813-2.29l-0.918 1.591-1.727-1 0.918-1.59c-2.114-1.068-4.472-1.725-6.968-1.864v2.913h-2v-2.913z" fill="#fff" mask="url(#d)"/>
        </g>
        <mask id="a" fill="white">
          <use xlink:href="#b"/>
        </mask>
        <polygon points="81.504 59.908 83.504 59.908 83.504 57.908 81.504 57.908" fill="#fff" mask="url(#a)"/>
        <polygon points="46.504 26.829 47.504 26.829 47.504 42.924 46.504 42.924 45.504 42.924 45.504 26.829" fill="#fff" mask="url(#a)"/>
        <polygon points="50.504 23.874 51.504 23.874 51.504 34.385 50.504 34.385 49.504 34.385 49.504 23.874" fill="#E15736" mask="url(#a)"/>
        <polygon points="54.504 31.974 55.504 31.974 55.504 45.408 54.504 45.408 53.504 45.408 53.504 31.974" fill="#fff" mask="url(#a)"/>
        <polygon points="58.505 21.806 59.505 21.806 59.505 35.24 58.505 35.24 57.505 35.24 57.505 21.806" fill="#E15736" mask="url(#a)"/>
        <polygon points="62.505 8.2504 63.505 8.2504 63.505 29.574 62.505 29.574 61.505 29.574 61.505 8.2504" fill="#fff" mask="url(#a)"/>
        <polygon points="66.505 18.624 67.505 18.624 67.505 45.408 66.505 45.408 65.505 45.408 65.505 18.624" fill="#E15736" mask="url(#a)"/>
        <polygon points="70.505 31.824 71.505 31.824 71.505 45.408 70.505 45.408 69.505 45.408 69.505 31.824" fill="#fff" mask="url(#a)"/>
        <polygon points="74.506 23.724 75.506 23.724 75.506 37.308 74.506 37.308 73.506 37.308 73.506 23.724" fill="#E15736" mask="url(#a)"/>
        <polygon points="78.506 8.2504 79.506 8.2504 79.506 40.224 78.506 40.224 77.506 40.224 77.506 8.2504" fill="#fff" mask="url(#a)"/>
        <polygon points="82.506 21.806 83.506 21.806 83.506 45.408 82.506 45.408 81.506 45.408 81.506 21.806" fill="#E15736" mask="url(#a)"/>
        <polygon points="86.506 13.706 87.506 13.706 87.506 37.308 86.506 37.308 85.506 37.308 85.506 13.706" fill="#fff" mask="url(#a)"/>
        <polygon points="90.506 14.874 91.506 14.874 91.506 33.624 90.506 33.624 89.506 33.624 89.506 14.874" fill="#E15736" mask="url(#a)"/>
        <polygon points="94.507 14.724 95.507 14.724 95.507 30.024 94.507 30.024 93.507 30.024 93.507 14.724" fill="#fff" mask="url(#a)"/>
        <polygon points="98.507 10.434 99.507 10.434 99.507 36.023 98.507 36.023 97.507 36.023 97.507 10.434" fill="#fff" mask="url(#a)"/>
        <polygon points="102.51 16.224 103.51 16.224 103.51 37.435 102.51 37.435 101.51 37.435 101.51 16.224" fill="#E15736" mask="url(#a)"/>
        <polygon points="106.51 21.368 107.51 21.368 107.51 38.616 106.51 38.616 105.51 38.616 105.51 21.368" fill="#fff" mask="url(#a)"/>
        <polygon points="42.504 22.524 43.504 22.524 43.504 33.573 42.504 33.573 41.504 33.573 41.504 22.524" fill="#E15736" mask="url(#a)"/>
        <polygon points="110.51 26.829 111.51 26.829 111.51 42.924 110.51 42.924 109.51 42.924 109.51 26.829" fill="#E15736" mask="url(#a)"/>
        <polygon points="114.51 23.874 115.51 23.874 115.51 34.385 114.51 34.385 113.51 34.385 113.51 23.874" fill="#fff" mask="url(#a)"/>
        <polygon points="118.51 31.974 119.51 31.974 119.51 45.408 118.51 45.408 117.51 45.408 117.51 31.974" fill="#E15736" mask="url(#a)"/>
        <polygon points="122.51 21.806 123.51 21.806 123.51 35.24 122.51 35.24 121.51 35.24 121.51 21.806" fill="#fff" mask="url(#a)"/>
        <path d="m23.46 36.765c-5.889 0.255-11.199 2.746-15.099 6.646-4.12 4.12-6.668 9.812-6.668 16.099s2.548 11.979 6.668 16.099 9.812 6.669 16.099 6.669 11.979-2.549 16.099-6.669c0.452-0.452 0.885-0.922 1.297-1.41-0.307-0.413-0.489-0.924-0.489-1.478 0-1.367 1.108-2.476 2.475-2.476s2.476 1.109 2.476 2.476-1.109 2.475-2.476 2.475c-0.193 0-0.38-0.022-0.56-0.063-0.483 0.581-0.993 1.139-1.526 1.673-4.427 4.426-10.542 7.164-17.296 7.164s-12.87-2.738-17.296-7.164-7.164-10.542-7.164-17.296 2.738-12.869 7.164-17.295c4.207-4.207 9.94-6.889 16.296-7.144v-2.499l4.455 3.324-4.455 3.324v-2.455z" fill="#E15736" mask="url(#a)"/>
      </g>
    </g>
  </g>
</svg>
