<?xml version="1.0" standalone="no"?><!DOCTYPE svg PUBLIC "-//W3C//DTD SVG 1.1//EN" "http://www.w3.org/Graphics/SVG/1.1/DTD/svg11.dtd"><svg t="1530157891461" class="icon" style="fill:#fff" viewBox="0 0 1131 1024" version="1.1" xmlns="http://www.w3.org/2000/svg" p-id="782" xmlns:xlink="http://www.w3.org/1999/xlink" width="141.375" height="128"><defs><style type="text/css"></style></defs><path d="M266.778947 924.294737c-5.389474 0-8.084211-2.694737-10.778947-5.389474-5.389474-5.389474-2.694737-13.473684 2.694737-18.863158 13.473684-8.084211 129.347368-83.536842 150.905263-72.757894 51.2 24.252632 105.094737 35.031579 161.684211 35.031578C776.084211 862.315789 943.157895 703.326316 943.157895 506.610526S778.778947 148.210526 571.284211 148.210526 199.410526 307.2 199.410526 503.915789c0 80.842105 29.642105 161.684211 83.536842 226.357895 5.389474 5.389474 5.389474 13.473684-2.694736 18.863158-5.389474 5.389474-13.473684 5.389474-18.863158-2.694737-59.284211-67.368421-91.621053-153.6-91.621053-242.526316 0-210.189474 180.547368-382.652632 398.821053-382.652631 220.968421 0 398.821053 172.463158 398.821052 382.652631 0 210.189474-180.547368 382.652632-398.821052 382.652632-59.284211 0-115.873684-10.778947-169.768421-35.031579-18.863158 5.389474-102.4 53.894737-126.652632 70.063158 0 0-2.694737 2.694737-5.389474 2.694737z" fill="" p-id="783"></path><path d="M749.136842 450.021053H377.263158c-8.084211 0-13.473684-5.389474-13.473684-13.473685s5.389474-13.473684 13.473684-13.473684h371.873684c8.084211 0 13.473684 5.389474 13.473684 13.473684s-5.389474 13.473684-13.473684 13.473685zM611.705263 609.010526H377.263158c-8.084211 0-13.473684-5.389474-13.473684-13.473684s5.389474-13.473684 13.473684-13.473684h234.442105c8.084211 0 13.473684 5.389474 13.473684 13.473684s-8.084211 13.473684-13.473684 13.473684z" fill="" p-id="784"></path></svg>