<?xml version="1.0" standalone="no"?><!DOCTYPE svg PUBLIC "-//W3C//DTD SVG 1.1//EN" "http://www.w3.org/Graphics/SVG/1.1/DTD/svg11.dtd"><svg t="1530157592316" class="icon" style="fill:#fff;" viewBox="0 0 1131 1024" version="1.1" xmlns="http://www.w3.org/2000/svg" p-id="782" xmlns:xlink="http://www.w3.org/1999/xlink" width="141.375" height="128"><defs><style type="text/css"></style></defs><path d="M541.642105 614.4c-102.4 0-185.936842-83.536842-185.936842-185.936842S439.242105 242.526316 541.642105 242.526316c102.4 0 185.936842 83.536842 185.936842 185.936842s-83.536842 185.936842-185.936842 185.936842z m0-344.926316c-86.231579 0-158.989474 70.063158-158.989473 158.989474s70.063158 158.989474 158.989473 158.989474 158.989474-70.063158 158.989474-158.989474-70.063158-158.989474-158.989474-158.989474z" p-id="783"></path><path d="M859.621053 867.705263H229.052632v-13.473684c0-8.084211 16.168421-183.242105 161.68421-231.747368 8.084211-2.694737 13.473684 0 16.168421 8.08421 2.694737 8.084211 0 13.473684-8.08421 16.168421-105.094737 35.031579-132.042105 153.6-140.126316 194.021053h573.978947c-2.694737-59.284211-26.947368-107.789474-64.673684-142.821053-91.621053-83.536842-250.610526-75.452632-253.305263-75.452631-8.084211 0-13.473684-5.389474-13.473684-13.473685s5.389474-13.473684 13.473684-13.473684 172.463158-10.778947 272.168421 83.536842c48.505263 43.115789 72.757895 102.4 72.757895 175.157895v13.473684z" p-id="784"></path></svg>