<?xml version="1.0" encoding="UTF-8"?>
<svg version="1.1" viewBox="0 0 106 95" xmlns="http://www.w3.org/2000/svg" xmlns:xlink="http://www.w3.org/1999/xlink">
  <title>Icon 01</title>
  <desc>Created with Sketch.</desc>
  <defs>
    <polygon id="b" points="0 95.01 105.95 95.01 105.95 0.55324 0 0.55324"/>
  </defs>
  <g fill="none" fill-rule="evenodd">
    <g transform="translate(-48 -29)">
      <g transform="translate(48 28)">
        <polygon points="76.947 80.632 78.947 80.632 78.947 71.694 76.947 71.694" fill="#E25736"/>
        <g transform="translate(0 .43675)">
          <path d="m57.335 40.933c-0.869 0.85806-2.068 1.3885-3.391 1.3885s-2.523-0.53047-3.392-1.3885c-0.871-0.86004-1.41-2.0457-1.41-3.3531 0-1.3074 0.539-2.493 1.41-3.3531 0.869-0.85806 2.069-1.3885 3.392-1.3885s2.522 0.53047 3.391 1.3885c0.87 0.86004 1.409 2.0457 1.409 3.3531 0 1.3074-0.539 2.493-1.409 3.3531zm-3.391-0.19695c0.885 0 1.686-0.35332 2.264-0.92437 0.577-0.56907 0.934-1.3588 0.934-2.2318s-0.357-1.6627-0.934-2.2318c-0.578-0.57105-1.379-0.92437-2.264-0.92437-0.886 0-1.687 0.35332-2.265 0.92437-0.577 0.56907-0.935 1.3588-0.935 2.2318s0.358 1.6627 0.935 2.2318c0.578 0.57105 1.379 0.92437 2.265 0.92437z" fill="#E25736"/>
          <mask id="a" fill="white">
            <use xlink:href="#b"/>
          </mask>
          <polygon points="3.947 95.01 105.91 95.01 105.91 93.031 3.947 93.031" fill="#fff" mask="url(#a)"/>
          <polygon points="48.947 90.062 60.947 90.062 60.947 89.072 48.947 89.072" fill="#fff" mask="url(#a)"/>
          <path d="m45.63 89.995c-0.523 0.070268-1.61 0.11184-3.002-0.21476-0.884-0.20784-1.911-0.56808-3.025-1.1708-1.324-0.71555-2.68-1.0748-4.033-1.0748-1.352 0-2.707 0.35926-4.032 1.0748-1.754 0.94911-3.977 1.4242-6.184 1.4242-2.206 0-4.43-0.47505-6.184-1.4242-1.324-0.71654-2.68-1.0748-4.032-1.0748s-2.708 0.35827-4.033 1.0748c-1.15 0.62252-2.216 0.98672-3.129 1.1916-1.527 0.34342-2.676 0.24544-3.098 0.1633l0.382-1.9408c0.289 0.056412 1.101 0.11777 2.279-0.14746 0.756-0.17023 1.645-0.47406 2.613-0.9986 1.63-0.88181 3.306-1.3222 4.986-1.3222 1.679 0 3.356 0.44041 4.985 1.3222 1.45 0.78384 3.332 1.1767 5.231 1.1767s3.782-0.39291 5.231-1.1767c1.629-0.88082 3.306-1.3222 4.985-1.3222 1.68 0 3.357 0.4414 4.986 1.3222 0.927 0.50177 1.788 0.80264 2.532 0.97781 1.103 0.25831 1.903 0.23357 2.277 0.18408l0.265 1.9556z" fill="#E25736" mask="url(#a)"/>
          <polygon points="9.947 38.597 30.894 38.597 30.894 36.618 9.947 36.618" fill="#fff" mask="url(#a)"/>
          <polygon points="0 48.494 8.023 48.494 8.023 46.514 0 46.514" fill="#fff" mask="url(#a)"/>
          <polygon points="67.947 45.525 75.97 45.525 75.97 43.545 67.947 43.545" fill="#fff" mask="url(#a)"/>
          <polygon points="16 43.544 36.947 43.544 36.947 41.565 16 41.565" fill="#fff" mask="url(#a)"/>
          <polygon points="81.977 40.575 98.979 40.575 98.979 38.596 81.977 38.596" fill="#fff" mask="url(#a)"/>
          <polygon points="0.969 43.545 13.946 43.545 13.946 41.566 0.969 41.566" fill="#fff" mask="url(#a)"/>
          <polygon points="69.947 40.576 79.924 40.576 79.924 38.597 69.947 38.597" fill="#fff" mask="url(#a)"/>
          <polygon points="10.085 48.493 39.947 48.493 39.947 46.513 10.085 46.513" fill="#fff" mask="url(#a)"/>
          <polygon points="78.032 45.524 93.824 45.524 93.824 43.544 78.032 43.544" fill="#fff" mask="url(#a)"/>
          <polygon points="95.947 45.525 103.97 45.525 103.97 43.545 95.947 43.545" fill="#fff" mask="url(#a)"/>
          <path d="m5.9467 72.199v8.7885c1.883-1.3935 5.182-3.2224 9.496-3.1898 4.306 0.03167 7.597 1.9022 9.478 3.3204v-8.9191h-18.974zm44.005-50.39h7.99v-6.9684h-7.99v6.9684zm39.995 62.384h14v-25.871h-14v25.871zm-32 0h14v-25.871h-14v25.871zm16 0h14v-16.872h-14v16.872zm-28.04-38.628h16.074v-15.972h-16.074v15.972zm14.851-17.871l-2.188-3.9162h-9.174l-2.242 3.9162h13.604zm-14.824 53.433v-8.929h-18.986v8.7865c1.884-1.3925 5.182-3.2205 9.494-3.1878 4.317 0.03167 7.614 1.9111 9.492 3.3303zm2.014 2.1773v0.93724h7.976c0-10.557 0.023-21.149 0.023-31.674h2v3.9132h2c0-3.0017 7e-3 -6.0074 7e-3 -9.0161h-12.015c0 11.968 9e-3 23.872 9e-3 35.84zm-21.026-17.986v4.9969h0.026 18.986v-4.9969h-0.987v-3.9588h0.987v-13.895h-0.987-0.96v-0.9501-17.871-0.9501h0.908l3.047-5.3216v-8.5173-0.98474l6.184-12.318 5.826 12.318v0.98474 8.3758l0.062 0.11085 2.989 5.3522h0.898v0.9501 17.871 0.9501h-0.96-0.982v9.0161h1.988v-2.0487h2v2.0487h2v-2.0487h2v2.0487h2v-4.028h2.001l-1e-3 13.026h2v-2.0506h2v2.0506h2v-2.0487h2v2.0487h2v-2.0487h2v2.0487h2v-12.912h2v3.9132h2v-2.0318h2v2.0318h2v-2.0487h2v2.0487h2v-2.0487h2v2.0487h2v-4.028h2.001l-1e-3 33.58c-20.028 0-40.031-0.045526-60.013-0.045526v-0.87291-1.4618c-0.946-0.92833-4.41-3.9439-9.507-3.9815-5.067-0.037608-8.514 2.8869-9.479 3.8153v2.1773h-2.027v-2.0239c-0.966-0.94416-4.422-3.9311-9.494-3.9687-5.07-0.037608-8.518 2.8909-9.48 3.8162v0.26425h-0.262l-0.011 0.012866-1.753 1.8992v-2.5168c0-5.9599 0.026-11.894 0-17.828h-0.974v-3.9588h4v3.9588h-1v4.9969h18.974 1e-3v-4.9969h-0.975v-3.9588h4v3.9588h-1.025zm23.186-52.449h7.696l-3.734-7.4217-3.962 7.4217z" fill="#fff" mask="url(#a)"/>
          <polygon points="63.947 90.062 75.947 90.062 75.947 89.072 63.947 89.072" fill="#fff" mask="url(#a)"/>
          <polygon points="78.947 90.062 90.947 90.062 90.947 89.072 78.947 89.072" fill="#fff" mask="url(#a)"/>
          <polygon points="93.948 90.062 105.95 90.062 105.95 89.072 93.948 89.072" fill="#fff" mask="url(#a)"/>
          <polygon points="60.94 67.329 62.94 67.329 62.94 63.34 60.94 63.34" fill="#E25736" mask="url(#a)"/>
          <polygon points="66.947 67.329 68.947 67.329 68.947 63.34 66.947 63.34" fill="#E25736" mask="url(#a)"/>
          <polygon points="60.94 75.246 62.94 75.246 62.94 71.258 60.94 71.258" fill="#E25736" mask="url(#a)"/>
          <polygon points="66.947 75.246 68.947 75.246 68.947 71.258 66.947 71.258" fill="#E25736" mask="url(#a)"/>
          <polygon points="82.947 80.196 84.947 80.196 84.947 71.258 82.947 71.258" fill="#E25736" mask="url(#a)"/>
          <polygon points="92.94 67.329 94.94 67.329 94.94 63.34 92.94 63.34" fill="#E25736" mask="url(#a)"/>
          <polygon points="98.947 67.329 100.95 67.329 100.95 63.34 98.947 63.34" fill="#E25736" mask="url(#a)"/>
          <polygon points="92.94 75.246 94.94 75.246 94.94 71.258 92.94 71.258" fill="#E25736" mask="url(#a)"/>
          <polygon points="98.947 75.246 100.95 75.246 100.95 71.258 98.947 71.258" fill="#E25736" mask="url(#a)"/>
          <polygon points="75.904 36.623 89.924 36.623 89.924 34.643 75.904 34.643" fill="#fff" mask="url(#a)"/>
          <polygon points="4.225 53.44 25.172 53.44 25.172 51.461 4.225 51.461" fill="#fff" mask="url(#a)"/>
        </g>
      </g>
    </g>
  </g>
</svg>
