<?xml version="1.0" encoding="utf-8"?>
<svg enable-background="new -275 367 60 60" viewBox="-275 367 60 60" xmlns="http://www.w3.org/2000/svg" xmlns:xlink="http://www.w3.org/1999/xlink">
  <style type="text/css">.st0{clip-path:url(#k);} .st1{clip-path:url(#f);fill:#CE4A32;} .st2{clip-path:url(#d);} .st3{clip-path:url(#b);fill:#FFFFFF;} .st4{clip-path:url(#af);} .st5{clip-path:url(#ad);fill:#FFFFFF;} .st6{clip-path:url(#ab);} .st7{clip-path:url(#z);fill:#FFFFFF;} .st8{clip-path:url(#x);} .st9{clip-path:url(#u);fill:#FFFFFF;} .st10{clip-path:url(#s);} .st11{clip-path:url(#q);fill:#FFFFFF;} .st12{clip-path:url(#o);} .st13{clip-path:url(#m);fill:#FFFFFF;} .st14{clip-path:url(#j);} .st15{clip-path:url(#h);fill:#FFFFFF;}</style>
  <defs>
    <path id="v" d="m-243.7 402.8h2.9v-6.9h-2.9v6.9zm-5.1 0h3v-4h-3v4zm10 0h3v-9h-3v9z"/>
  </defs>
  <clipPath id="k">
    <use overflow="visible" xlink:href="#v"/>
  </clipPath>
  <g class="st0">
    <defs>
      <path id="g" d="m-410.8-3057.2h1440v5040h-1440z"/>
    </defs>
    <clipPath id="f">
      <use overflow="visible" xlink:href="#g"/>
    </clipPath>
    <path class="st1" d="m-253.8 388.8h23v19h-23z"/>
  </g>
  <defs>
    <path id="e" d="M-227.7 410.4l-2.1 2.1 8.6 8.6 2.1-2.1-8.6-8.6zm-21.6-19.5c-4.3 4.3-4.3 11.2 0 15.5 4.3 4.3 11.2 4.3 15.5 0 4.3-4.3 4.3-11.2 0-15.5-4.2-4.3-11.2-4.3-15.5 0zm7.6-11.2l-12-7.6-12.1 7.6h24.1zm-25.1 14.1h5v-12h-5v12zm21.1-12v4.4c.7-.3 1.5-.4 2.3-.6.9-.1 1.8-.2 2.7-.1v-3.7h-5zm-14 12h5v-12h-5v12zm12-6.7v-5.3h-5v10c.6-.9 1.3-1.7 1.9-2.4.6-.6 1.2-1.1 1.8-1.5.4-.4.8-.6 1.3-.8zm-6.7 8.7h-16.4v3h16c0-.6 0-1.1.1-1.7.2-.4.2-.9.3-1.3zm-14.4-2v-12.1h-4l19.1-11.9 18.9 11.9h-3.9v4.3c2.3.5 4.6 1.7 6.4 3.5 2.5 2.5 3.8 5.8 3.8 9.2 0 2.8-.9 5.7-2.8 8l2.2 2.2.7-.7.7-.7.7.7 10 10 .7.7-.7.7-3.5 3.5-.7.7-.7-.7-10-10-.7-.7.7-.7.7-.7-2.2-2.2c-2.3 1.9-5.2 2.8-8 2.8-3.3 0-6.6-1.3-9.2-3.8-2-2-3.2-4.5-3.6-7h-17.5c-.6 0-1-.4-1-1v-5c0-.6.4-1 1-1h2.9z"/>
  </defs>
  <clipPath id="d">
    <use overflow="visible" xlink:href="#e"/>
  </clipPath>
  <g class="st2">
    <defs>
      <path id="c" d="m-410.8-3057.2h1440v5040h-1440z"/>
    </defs>
    <clipPath id="b">
      <use overflow="visible" xlink:href="#c"/>
    </clipPath>
    <path class="st3" d="m-277.8 364.8h66.5v64.1h-66.5z"/>
  </g>
  <defs>
    <path id="a" d="m-232.8 381.8h8v2h-8z"/>
  </defs>
  <clipPath id="af">
    <use overflow="visible" xlink:href="#a"/>
  </clipPath>
  <g class="st4">
    <defs>
      <path id="ae" d="m-410.8-3057.2h1440v5040h-1440z"/>
    </defs>
    <clipPath id="ad">
      <use overflow="visible" xlink:href="#ae"/>
    </clipPath>
    <path class="st5" d="m-237.8 376.8h18v12h-18z"/>
  </g>
  <defs>
    <path id="ac" d="m-229.8 378.8h2v8h-2z"/>
  </defs>
  <clipPath id="ab">
    <use overflow="visible" xlink:href="#ac"/>
  </clipPath>
  <g class="st6">
    <defs>
      <path id="aa" d="m-410.8-3057.2h1440v5040h-1440z"/>
    </defs>
    <clipPath id="z">
      <use overflow="visible" xlink:href="#aa"/>
    </clipPath>
    <path class="st7" d="m-234.8 373.8h12v18h-12z"/>
  </g>
  <defs>
    <path id="y" d="m-261.8 409.8h8v2h-8z"/>
  </defs>
  <clipPath id="x">
    <use overflow="visible" xlink:href="#y"/>
  </clipPath>
  <g class="st8">
    <defs>
      <path id="w" d="m-410.8-3057.2h1440v5040h-1440z"/>
    </defs>
    <clipPath id="u">
      <use overflow="visible" xlink:href="#w"/>
    </clipPath>
    <path class="st9" d="m-266.8 404.8h18v12h-18z"/>
  </g>
  <defs>
    <path id="t" d="m-258.8 406.8h2v8h-2z"/>
  </defs>
  <clipPath id="s">
    <use overflow="visible" xlink:href="#t"/>
  </clipPath>
  <g class="st10">
    <defs>
      <path id="r" d="m-410.8-3057.2h1440v5040h-1440z"/>
    </defs>
    <clipPath id="q">
      <use overflow="visible" xlink:href="#r"/>
    </clipPath>
    <path class="st11" d="m-263.8 401.8h12v18h-12z"/>
  </g>
  <defs>
    <path id="p" d="m-226.8 391.8h5v1h-5z"/>
  </defs>
  <clipPath id="o">
    <use overflow="visible" xlink:href="#p"/>
  </clipPath>
  <g class="st12">
    <defs>
      <path id="n" d="m-410.8-3057.2h1440v5040h-1440z"/>
    </defs>
    <clipPath id="m">
      <use overflow="visible" xlink:href="#n"/>
    </clipPath>
    <path class="st13" d="m-231.8 386.8h15v11h-15z"/>
  </g>
  <defs>
    <path id="l" d="m-224.8 389.8h1v5h-1z"/>
  </defs>
  <clipPath id="j">
    <use overflow="visible" xlink:href="#l"/>
  </clipPath>
  <g class="st14">
    <defs>
      <path id="i" d="m-410.8-3057.2h1440v5040h-1440z"/>
    </defs>
    <clipPath id="h">
      <use overflow="visible" xlink:href="#i"/>
    </clipPath>
    <path class="st15" d="m-229.8 384.8h11v15h-11z"/>
  </g>
</svg>
