<?xml version="1.0" encoding="utf-8"?>
<svg enable-background="new 0 0 60 60" viewBox="0 0 60 60" xmlns="http://www.w3.org/2000/svg" xmlns:xlink="http://www.w3.org/1999/xlink">
  <style type="text/css">.st0{clip-path:url(#p);} .st1{clip-path:url(#f);fill:#FFFFFF;} .st2{clip-path:url(#d);fill:#FFFFFF;} .st3{clip-path:url(#b);fill:#FFFFFF;} .st4{clip-path:url(#av);fill:#FFFFFF;} .st5{clip-path:url(#at);fill:#FFFFFF;} .st6{clip-path:url(#ar);fill:#FFFFFF;} .st7{clip-path:url(#ap);fill:#FFFFFF;} .st8{clip-path:url(#an);fill:#FFFFFF;} .st9{clip-path:url(#ak);fill:#FFFFFF;} .st10{clip-path:url(#ai);fill:#FFFFFF;} .st11{clip-path:url(#ag);fill:#FFFFFF;} .st12{clip-path:url(#ae);fill:#FFFFFF;} .st13{clip-path:url(#ac);fill:#FFFFFF;} .st14{clip-path:url(#z);fill:#FFFFFF;} .st15{clip-path:url(#x);fill:#FFFFFF;} .st16{clip-path:url(#v);fill:#FFFFFF;} .st17{clip-path:url(#t);fill:#FFFFFF;} .st18{clip-path:url(#r);fill:#FFFFFF;} .st19{clip-path:url(#o);fill:#FFFFFF;} .st20{clip-path:url(#l);} .st21{clip-path:url(#k);fill:#ED1C24;} .st22{clip-path:url(#i);fill:#FFFFFF;} .st23{clip-path:url(#g);fill:#FFFFFF;}</style>
  <defs>
    <path id="al" d="M6 9h48v41H6z"/>
  </defs>
  <defs>
    <path id="aa" d="M22 9h16v1h15v30H33.8l4.5 7 .5.8-.1.2H54v2H6v-2h15.3l.4-.6 4.7-7.4H7V10h15V9zm9.5 31h-2.7l-.3.4-4.8 7.6h12.9l-5.1-8zM38 12v1H22v-1H9v26h42V12H38z"/>
  </defs>
  <clipPath id="p">
    <use overflow="visible" xlink:href="#al"/>
  </clipPath>
  <clipPath id="f" class="st0">
    <use overflow="visible" xlink:href="#aa"/>
  </clipPath>
  <path class="st1" d="M1 4h58v51H1z"/>
  <defs>
    <path id="e" d="m11 17h2v2h-2z"/>
  </defs>
  <clipPath id="d">
    <use overflow="visible" xlink:href="#e"/>
  </clipPath>
  <path class="st2" d="M6 12h12v12H6z"/>
  <defs>
    <path id="c" d="m15 17h2v2h-2z"/>
  </defs>
  <clipPath id="b">
    <use overflow="visible" xlink:href="#c"/>
  </clipPath>
  <path class="st3" d="M10 12h12v12H10z"/>
  <defs>
    <path id="a" d="m19 17h2v2h-2z"/>
  </defs>
  <clipPath id="av">
    <use overflow="visible" xlink:href="#a"/>
  </clipPath>
  <path class="st4" d="M14 12h12v12H14z"/>
  <defs>
    <path id="au" d="m23 17h2v2h-2z"/>
  </defs>
  <clipPath id="at">
    <use overflow="visible" xlink:href="#au"/>
  </clipPath>
  <path class="st5" d="M18 12h12v12H18z"/>
  <defs>
    <path id="as" d="m27 17h2v2h-2z"/>
  </defs>
  <clipPath id="ar">
    <use overflow="visible" xlink:href="#as"/>
  </clipPath>
  <path class="st6" d="M22 12h12v12H22z"/>
  <defs>
    <path id="aq" d="m31 17h2v2h-2z"/>
  </defs>
  <clipPath id="ap">
    <use overflow="visible" xlink:href="#aq"/>
  </clipPath>
  <path class="st7" d="M26 12h12v12H26z"/>
  <defs>
    <path id="ao" d="m35 17h2v2h-2z"/>
  </defs>
  <clipPath id="an">
    <use overflow="visible" xlink:href="#ao"/>
  </clipPath>
  <path class="st8" d="M30 12h12v12H30z"/>
  <defs>
    <path id="am" d="m39 17h2v2h-2z"/>
  </defs>
  <clipPath id="ak">
    <use overflow="visible" xlink:href="#am"/>
  </clipPath>
  <path class="st9" d="M34 12h12v12H34z"/>
  <defs>
    <path id="aj" d="m11 31h2v2h-2z"/>
  </defs>
  <clipPath id="ai">
    <use overflow="visible" xlink:href="#aj"/>
  </clipPath>
  <path class="st10" d="M6 26h12v12H6z"/>
  <defs>
    <path id="ah" d="m19 31h2v2h-2z"/>
  </defs>
  <clipPath id="ag">
    <use overflow="visible" xlink:href="#ah"/>
  </clipPath>
  <path class="st11" d="M14 26h12v12H14z"/>
  <defs>
    <path id="af" d="m23 31h2v2h-2z"/>
  </defs>
  <clipPath id="ae">
    <use overflow="visible" xlink:href="#af"/>
  </clipPath>
  <path class="st12" d="M18 26h12v12H18z"/>
  <defs>
    <path id="ad" d="m27 31h2v2h-2z"/>
  </defs>
  <clipPath id="ac">
    <use overflow="visible" xlink:href="#ad"/>
  </clipPath>
  <path class="st13" d="M22 26h12v12H22z"/>
  <defs>
    <path id="ab" d="m31 31h2v2h-2z"/>
  </defs>
  <clipPath id="z">
    <use overflow="visible" xlink:href="#ab"/>
  </clipPath>
  <path class="st14" d="M26 26h12v12H26z"/>
  <defs>
    <path id="y" d="m35 31h2v2h-2z"/>
  </defs>
  <clipPath id="x">
    <use overflow="visible" xlink:href="#y"/>
  </clipPath>
  <path class="st15" d="M30 26h12v12H30z"/>
  <defs>
    <path id="w" d="m39 31h2v2h-2z"/>
  </defs>
  <clipPath id="v">
    <use overflow="visible" xlink:href="#w"/>
  </clipPath>
  <path class="st16" d="M34 26h12v12H34z"/>
  <defs>
    <path id="u" d="m43 31h2v2h-2z"/>
  </defs>
  <clipPath id="t">
    <use overflow="visible" xlink:href="#u"/>
  </clipPath>
  <path class="st17" d="M38 26h12v12H38z"/>
  <defs>
    <path id="s" d="m47 31h2v2h-2z"/>
  </defs>
  <clipPath id="r">
    <use overflow="visible" xlink:href="#s"/>
  </clipPath>
  <path class="st18" d="M42 26h12v12H42z"/>
  <defs>
    <path id="q" d="m43 17h2v2h-2z"/>
  </defs>
  <clipPath id="o">
    <use overflow="visible" xlink:href="#q"/>
  </clipPath>
  <path class="st19" d="M38 12h12v12H38z"/>
  <defs>
    <path id="n" d="M6 9h48v41H6z"/>
  </defs>
  <defs>
    <path id="m" d="M17.4 29.5c-.3.5-.9.6-1.4.3-.5-.3-.6-.9-.3-1.4l3-5.9c.3-.5.9-.6 1.4-.3l9.4 4.3 2.8-5.1c.2-.5.8-.7 1.3-.5l7 3.2 2.1-3c.3-.5.9-.6 1.4-.3.5.3.6.9.3 1.4l-2.5 3.7c-.3.4-.8.6-1.3.4l-6.9-3.2-2.8 5.2c-.3.5-.9.7-1.3.4l-9.5-4.4-2.7 5.2z"/>
  </defs>
  <clipPath id="l">
    <use overflow="visible" xlink:href="#n"/>
  </clipPath>
  <clipPath id="k" class="st20">
    <use overflow="visible" xlink:href="#m"/>
  </clipPath>
  <path class="st21" d="M10.5 15.7h38.9V35H10.5z"/>
  <defs>
    <path id="j" d="m15 31h2v2h-2z"/>
  </defs>
  <clipPath id="i">
    <use overflow="visible" xlink:href="#j"/>
  </clipPath>
  <path class="st22" d="M10 26h12v12H10z"/>
  <defs>
    <path id="h" d="m47 17h2v2h-2z"/>
  </defs>
  <clipPath id="g">
    <use overflow="visible" xlink:href="#h"/>
  </clipPath>
  <path class="st23" d="M42 12h12v12H42z"/>
</svg>
